<?xml version="1.0" encoding="UTF-8" standalone="no"?>
<!-- Created with Inkscape (http://www.inkscape.org/) -->

<svg
   width="154.51666mm"
   height="65.352081mm"
   viewBox="0 0 154.51666 65.352081"
   version="1.1"
   id="svg1"
   xml:space="preserve"
   sodipodi:docname="tptlogo.svg"
   inkscape:version="1.3.2 (091e20ef0f, 2023-11-25)"
   xmlns:inkscape="http://www.inkscape.org/namespaces/inkscape"
   xmlns:sodipodi="http://sodipodi.sourceforge.net/DTD/sodipodi-0.dtd"
   xmlns="http://www.w3.org/2000/svg"
   xmlns:svg="http://www.w3.org/2000/svg"><sodipodi:namedview
     id="namedview1"
     pagecolor="#ffffff"
     bordercolor="#000000"
     borderopacity="0.25"
     inkscape:showpageshadow="2"
     inkscape:pageopacity="0.0"
     inkscape:pagecheckerboard="0"
     inkscape:deskcolor="#d1d1d1"
     inkscape:document-units="mm"
     inkscape:zoom="0.8513528"
     inkscape:cx="-12.920613"
     inkscape:cy="66.364966"
     inkscape:window-width="1916"
     inkscape:window-height="1041"
     inkscape:window-x="0"
     inkscape:window-y="19"
     inkscape:window-maximized="1"
     inkscape:current-layer="layer1" /><defs
     id="defs1" /><g
     inkscape:label="Layer 1"
     inkscape:groupmode="layer"
     id="layer1"
     transform="translate(-28.62019,-201.03561)"><path
       style="fill:#000000"
       d="m 28.62019,233.71165 v -32.67604 h 8.73125 8.73125 v 2.38124 2.38125 h -5.820833 -5.820833 v 27.91355 27.91354 h 5.820833 5.820833 v 2.38125 2.38125 h -8.73125 -8.73125 z m 137.05416,30.29479 v -2.38125 h 5.82083 5.82084 V 233.71165 205.7981 h -5.82084 -5.82083 v -2.38125 -2.38124 h 8.73125 8.73125 v 32.67604 32.67604 h -8.73125 -8.73125 z M 52.168106,240.32623 v -15.21354 h 4.7625 4.7625 v 15.21354 15.21354 h -4.7625 -4.7625 z m 23.547916,10.31875 v -4.89479 h 5.027083 5.027083 v 4.89479 4.89479 h -5.027083 -5.027083 z m 14.022916,-16.8185 v -21.71329 l 11.575522,0.10443 c 12.72452,0.11479 13.09736,0.15693 16.26478,1.83855 2.77133,1.47132 5.19355,4.69713 6.00208,7.99331 0.44141,1.79953 0.38377,5.78882 -0.11087,7.67361 -1.06218,4.0473 -4.05732,7.40792 -7.81102,8.76414 -1.98638,0.71768 -5.50903,1.17548 -9.05331,1.17653 l -3.37343,0.001 v -4.49792 -4.49791 h 2.98712 c 4.04802,0 8.5864,0.20279 8.55311,-5.15144 -0.0333,-5.35423 -4.72084,-4.39336 -15.508984,-4.41692 v 17.21957 17.21957 h -4.762498 -4.7625 z m 36.722232,16.81819 -0.0774,-4.89509 4.96094,3e-4 4.96093,3.1e-4 v 4.89479 4.89479 h -4.88349 -4.88349 z m 23.86735,-10.31844 v -15.21354 h 4.89479 4.89479 v 15.21354 15.21354 h -4.89479 -4.89479 z M 39.203523,216.64602 v -4.49792 h 17.727083 17.727082 v 4.49792 4.49792 H 56.930606 39.203523 Z m 98.424997,0 v -4.49792 h 17.59479 17.59479 v 4.49792 4.49792 h -17.59479 -17.59479 z"
       id="path1"
       sodipodi:nodetypes="ccccccccccccccccccccccccccccccccccccccccccccccccccccccsssssscccszcccccccccccccccccccccccccccccccccccccccccc" /></g></svg>
